<?xml version="1.0" encoding="utf-8"?>
<!-- Archimedean spiral icon by Arthur Shlain from Usefulicons.com -->
<svg xmlns="http://www.w3.org/2000/svg" xmlns:xlink="http://www.w3.org/1999/xlink" xml:space="preserve" version="1.1" x="0px" y="0px" viewBox="0 0 100 100" width="400px" height="400px"><path d="M50.779,95.035C45.858,95.035,40.866,94.161,36.233,92.48C30.954,90.565,25.962,87.537,21.798,83.723C17.589,79.868,14.084,75.08,11.661,69.878C9.212,64.621,7.787,58.762,7.54,52.937C7.29,47.05,8.234,40.999,10.27,35.437C12.328,29.818,15.569,24.509,19.644,20.085C23.761,15.616,28.867,11.898,34.409,9.336C40.008,6.747,46.242,5.249,52.435,5.002C53.809,4.938,54.977,6.021,55.033,7.4C55.088,8.78,54.014,9.942,52.635,9.998C47.093,10.219,41.516,11.559,36.509,13.874C31.558,16.164,26.998,19.482,23.323,23.473C19.689,27.418,16.8,32.149,14.967,37.156C13.155,42.106,12.315,47.489,12.536,52.725C12.756,57.899,14.021,63.101,16.194,67.767C18.342,72.379,21.448,76.621,25.176,80.036C28.86,83.41,33.273,86.088,37.939,87.781C42.548,89.453,47.555,90.219,52.422,89.998C52.478,89.996,52.532,89.994,52.587,89.996C57.378,89.785,62.191,88.619,66.517,86.619C70.839,84.62,74.82,81.723,78.028,78.24C81.199,74.797,83.721,70.667,85.321,66.296C86.903,61.977,87.636,57.278,87.443,52.709C87.252,48.195,86.148,43.656,84.251,39.584C82.378,35.562,79.668,31.86,76.415,28.879C73.203,25.937,69.353,23.601,65.282,22.124C61.262,20.665,56.892,19.993,52.65,20.19C48.46,20.38,44.251,21.417,40.478,23.189C36.754,24.937,33.332,27.459,30.582,30.481C27.868,33.464,25.717,37.033,24.364,40.803C23.029,44.523,22.424,48.561,22.616,52.48C22.805,56.346,23.775,60.226,25.422,63.699C27.045,67.123,29.379,70.266,32.172,72.788C34.923,75.273,38.213,77.238,41.683,78.468C45.102,79.68,48.814,80.223,52.404,80.03C55.946,79.842,59.495,78.939,62.67,77.419C65.795,75.921,68.659,73.776,70.952,71.213C73.209,68.691,74.988,65.683,76.096,62.514C77.185,59.395,77.661,56.017,77.472,52.747C77.286,49.53,76.45,46.311,75.055,43.436C73.683,40.609,71.726,38.024,69.395,35.96C67.104,33.931,64.377,32.338,61.508,31.354C58.689,30.386,55.641,29.973,52.697,30.162C49.804,30.346,46.914,31.114,44.34,32.383C41.813,33.628,39.507,35.397,37.669,37.498C35.868,39.558,34.46,42.004,33.598,44.572C32.752,47.089,32.404,49.805,32.589,52.426C32.771,54.994,33.47,57.555,34.613,59.831C35.732,62.059,37.311,64.087,39.18,65.696C41.008,67.269,43.173,68.492,45.441,69.233C47.657,69.957,50.045,70.245,52.338,70.06C54.581,69.882,56.812,69.25,58.791,68.234C60.72,67.242,62.47,65.853,63.851,64.215C65.198,62.619,66.237,60.736,66.856,58.77C67.459,56.855,67.683,54.801,67.503,52.829C67.329,50.912,66.767,49.01,65.878,47.33C65.015,45.699,63.816,44.226,62.411,43.073C61.048,41.952,59.448,41.097,57.784,40.598C56.171,40.114,54.447,39.952,52.801,40.126C51.207,40.295,49.635,40.786,48.256,41.545C46.922,42.279,45.727,43.286,44.799,44.457C43.904,45.586,43.231,46.902,42.851,48.264C42.485,49.574,42.381,50.965,42.55,52.286C42.711,53.555,43.129,54.797,43.757,55.88C44.359,56.916,45.171,57.836,46.106,58.539C46.999,59.21,48.029,59.705,49.086,59.968C50.092,60.218,51.15,60.267,52.144,60.108C53.087,59.958,54.001,59.618,54.787,59.125C55.527,58.66,56.173,58.046,56.655,57.351C57.105,56.7,57.424,55.958,57.576,55.208C57.717,54.512,57.716,53.79,57.574,53.122C57.443,52.506,57.189,51.921,56.839,51.431C56.521,50.986,56.116,50.61,55.67,50.344C55.27,50.106,54.828,49.953,54.393,49.902C54.014,49.858,53.634,49.89,53.296,49.998C51.982,50.417,50.575,49.689,50.156,48.373S50.465,45.651,51.781,45.233C52.79,44.911,53.895,44.808,54.977,44.936C56.103,45.069,57.225,45.452,58.223,46.045C59.262,46.662,60.19,47.52,60.909,48.525C61.656,49.571,62.194,50.802,62.466,52.084C62.748,53.414,62.753,54.837,62.478,56.199C62.192,57.61,61.601,58.991,60.768,60.197C59.904,61.444,58.757,62.537,57.449,63.359C56.097,64.208,54.535,64.792,52.933,65.047C51.281,65.309,49.533,65.231,47.881,64.82C46.179,64.396,44.527,63.607,43.104,62.536C41.633,61.433,40.365,60,39.43,58.39C38.469,56.734,37.832,54.842,37.587,52.917C37.335,50.94,37.489,48.867,38.032,46.92C38.59,44.923,39.574,42.997,40.878,41.351C42.215,39.663,43.932,38.216,45.843,37.164C47.799,36.087,50.022,35.392,52.271,35.154C54.573,34.91,56.975,35.136,59.217,35.808C61.511,36.495,63.713,37.671,65.584,39.208C67.496,40.778,69.125,42.778,70.296,44.99C71.492,47.25,72.247,49.803,72.481,52.374C72.72,54.999,72.423,57.729,71.624,60.27C70.807,62.862,69.44,65.341,67.671,67.437C65.868,69.575,63.587,71.388,61.074,72.679C58.512,73.995,55.628,74.812,52.734,75.042C49.781,75.277,46.726,74.911,43.887,73.984C40.997,73.04,38.241,71.484,35.917,69.484C33.552,67.448,31.556,64.885,30.144,62.073C28.707,59.212,27.828,55.997,27.6,52.777C27.368,49.504,27.803,46.115,28.856,42.978C29.926,39.791,31.671,36.757,33.903,34.204C36.171,31.611,39.015,29.43,42.128,27.896C45.289,26.338,48.833,25.395,52.378,25.169C55.978,24.942,59.693,25.442,63.13,26.622C66.617,27.819,69.929,29.753,72.709,32.215C75.529,34.713,77.895,37.837,79.552,41.251C81.233,44.713,82.24,48.588,82.463,52.457C82.691,56.378,82.121,60.426,80.816,64.161C79.493,67.947,77.37,71.538,74.678,74.546C71.949,77.594,68.544,80.146,64.83,81.925C61.067,83.728,56.862,84.799,52.669,85.021C48.423,85.251,44.047,84.61,40.012,83.179C35.926,81.73,32.056,79.419,28.821,76.497C25.545,73.538,22.807,69.852,20.904,65.838C18.978,61.775,17.844,57.24,17.623,52.722C17.399,48.152,18.103,43.445,19.659,39.111C21.233,34.727,23.731,30.578,26.885,27.113C30.074,23.608,34.04,20.684,38.354,18.659C42.717,16.611,47.583,15.411,52.424,15.191C57.32,14.969,62.357,15.739,66.989,17.42C71.672,19.119,76.1,21.805,79.794,25.188C83.528,28.609,86.638,32.856,88.786,37.469C90.958,42.133,92.222,47.328,92.44,52.493C92.662,57.714,91.825,63.08,90.019,68.012C88.195,72.994,85.321,77.702,81.708,81.624C78.058,85.586,73.532,88.881,68.618,91.154C63.655,93.448,58.129,94.777,52.638,94.996C52.585,95,52.535,95,52.488,95C51.919,95.023,51.35,95.035,50.779,95.035Z" stroke="none"></path></svg>